<svg xmlns="http://www.w3.org/2000/svg" xmlns:xlink="http://www.w3.org/1999/xlink">
	<symbol id="contact-phone" viewBox="0 0 28.029 28.028">
		<path d="M23.677 28.028L23.121 28c-1.253-.066-7.869-.762-15.1-7.992C.805 12.78.1 6.16.03 4.906L0 4.35l.458-.319a17.061 17.061 0 015.628-2.556l.565-.142.4.422a21.041 21.041 0 014.043 6.065l.275.626-2.433 2.431a13.455 13.455 0 003.36 4.791 13.627 13.627 0 004.856 3.424l2.427-2.436.627.277a20.962 20.962 0 016.065 4.044l.421.4-.141.563A17.066 17.066 0 0124 27.571zM9.436 18.593c5.951 5.95 11.441 7.125 13.238 7.355a15.078 15.078 0 001.784-3.925 18.956 18.956 0 00-4.438-2.975l-2.36 2.368-.6-.215a15.468 15.468 0 01-6.18-4.12 15.321 15.321 0 01-4.055-6.113l-.214-.6 2.368-2.361a19.047 19.047 0 00-2.973-4.439 15.057 15.057 0 00-3.924 1.784c.232 1.8 1.415 7.294 7.355 13.241zm18.593-5.315h-2A11.29 11.29 0 0014.751 2V0a13.294 13.294 0 0113.278 13.278zm-3.611 0h-2c0-4.658-3.01-7.667-7.667-7.667v-2c5.782 0 9.667 3.889 9.667 9.667zm-3.611 0h-2a4.061 4.061 0 00-4.056-4.056v-2a6.063 6.063 0 016.056 6.056z" />
	</symbol>

	<symbol id="slider-prev" viewBox="0 0 20 18">
		<path d="M18.75 7.74986H3.925L8.4625 2.29986C8.67467 2.04459 8.77675 1.71548 8.74628 1.38495C8.7158 1.05442 8.55527 0.74953 8.3 0.537356C8.04473 0.325183 7.71563 0.223106 7.3851 0.25358C7.05456 0.284055 6.74967 0.444586 6.5375 0.699856L0.2875 8.19986C0.245451 8.25951 0.207849 8.32218 0.175 8.38736C0.175 8.44986 0.175 8.48736 0.0875002 8.54986C0.0308421 8.69318 0.0011764 8.84575 0 8.99986C0.0011764 9.15397 0.0308421 9.30653 0.0875002 9.44986C0.0875002 9.51236 0.0874998 9.54986 0.175 9.61236C0.207849 9.67753 0.245451 9.7402 0.2875 9.79986L6.5375 17.2999C6.65503 17.441 6.8022 17.5544 6.96856 17.6322C7.13491 17.71 7.31636 17.7502 7.5 17.7499C7.79207 17.7504 8.07511 17.6487 8.3 17.4624C8.42657 17.3574 8.5312 17.2285 8.60789 17.0831C8.68458 16.9377 8.73183 16.7785 8.74692 16.6148C8.76202 16.4511 8.74466 16.286 8.69586 16.129C8.64705 15.972 8.56775 15.8262 8.4625 15.6999L3.925 10.2499H18.75C19.0815 10.2499 19.3995 10.1182 19.6339 9.88374C19.8683 9.64932 20 9.33138 20 8.99986C20 8.66834 19.8683 8.35039 19.6339 8.11597C19.3995 7.88155 19.0815 7.74986 18.75 7.74986Z"/>
	</symbol>

	<symbol id="slider-next" viewBox="0 0 20 18">
		<path d="M1.25 7.74986H16.075L11.5375 2.29986C11.3253 2.04459 11.2232 1.71548 11.2537 1.38495C11.2842 1.05442 11.4447 0.74953 11.7 0.537356C11.9553 0.325183 12.2844 0.223106 12.6149 0.25358C12.9454 0.284055 13.2503 0.444586 13.4625 0.699856L19.7125 8.19986C19.7545 8.25951 19.7922 8.32218 19.825 8.38736C19.825 8.44986 19.825 8.48736 19.9125 8.54986C19.9692 8.69318 19.9988 8.84575 20 8.99986C19.9988 9.15397 19.9692 9.30653 19.9125 9.44986C19.9125 9.51236 19.9125 9.54986 19.825 9.61236C19.7922 9.67753 19.7545 9.7402 19.7125 9.79986L13.4625 17.2999C13.345 17.441 13.1978 17.5544 13.0314 17.6322C12.8651 17.71 12.6836 17.7502 12.5 17.7499C12.2079 17.7504 11.9249 17.6487 11.7 17.4624C11.5734 17.3574 11.4688 17.2285 11.3921 17.0831C11.3154 16.9377 11.2682 16.7785 11.2531 16.6148C11.238 16.4511 11.2553 16.286 11.3041 16.129C11.3529 15.972 11.4322 15.8262 11.5375 15.6999L16.075 10.2499H1.25C0.91848 10.2499 0.600536 10.1182 0.366116 9.88374C0.131695 9.64932 0 9.33138 0 8.99986C0 8.66834 0.131695 8.35039 0.366116 8.11597C0.600536 7.88155 0.91848 7.74986 1.25 7.74986Z"/>
	</symbol>

	<symbol id="facebook" viewBox="0 0 32 32">
		<path d="M32 9C32 4.02944 27.9706 0 23 0H9C4.02944 0 0 4.02944 0 9V23C0 27.9706 4.02944 32 9 32H23C27.9706 32 32 27.9706 32 23V9Z"/>
		<path d="M24 16C24 11.6 20.4 8 16 8C11.6 8 8 11.6 8 16C8 20 10.9 23.3 14.7 23.9V18.3H12.7V16H14.7V14.2C14.7 12.2 15.9 11.1 17.7 11.1C18.6 11.1 19.5 11.3 19.5 11.3V13.3H18.5C17.5 13.3 17.2 13.9 17.2 14.5V16H19.4L19 18.3H17.1V24C21.1 23.4 24 20 24 16Z" fill="white"/>
	</symbol>

	<symbol id="instagram" viewBox="0 0 32 32">
		<path d="M32 9C32 4.02944 27.9706 0 23 0H9C4.02944 0 0 4.02944 0 9V23C0 27.9706 4.02944 32 9 32H23C27.9706 32 32 27.9706 32 23V9Z" />
		<path d="M16 9.2002C18.2 9.2002 18.5 9.2002 19.4 9.2002C20.2 9.2002 20.6 9.4002 20.9 9.5002C21.3 9.7002 21.6 9.8002 21.9 10.1002C22.2 10.4002 22.4 10.7002 22.5 11.1002C22.6 11.4002 22.7 11.8002 22.8 12.6002C22.8 13.5002 22.8 13.7002 22.8 16.0002C22.8 18.3002 22.8 18.5002 22.8 19.4002C22.8 20.2002 22.6 20.6002 22.5 20.9002C22.3 21.3002 22.2 21.6002 21.9 21.9002C21.6 22.2002 21.3 22.4002 20.9 22.5002C20.6 22.6002 20.2 22.7002 19.4 22.8002C18.5 22.8002 18.3 22.8002 16 22.8002C13.7 22.8002 13.5 22.8002 12.6 22.8002C11.8 22.8002 11.4 22.6002 11.1 22.5002C10.7 22.3002 10.4 22.2002 10.1 21.9002C9.80001 21.6002 9.60001 21.3002 9.50001 20.9002C9.40001 20.6002 9.30001 20.2002 9.20001 19.4002C9.20001 18.5002 9.20001 18.3002 9.20001 16.0002C9.20001 13.7002 9.20001 13.5002 9.20001 12.6002C9.20001 11.8002 9.40001 11.4002 9.50001 11.1002C9.70001 10.7002 9.80001 10.4002 10.1 10.1002C10.4 9.8002 10.7 9.6002 11.1 9.5002C11.4 9.4002 11.8 9.3002 12.6 9.2002C13.5 9.2002 13.8 9.2002 16 9.2002ZM16 7.7002C13.7 7.7002 13.5 7.7002 12.6 7.7002C11.7 7.7002 11.1 7.9002 10.6 8.1002C10.1 8.3002 9.60001 8.6002 9.10001 9.1002C8.60001 9.6002 8.40001 10.0002 8.10001 10.6002C7.90001 11.1002 7.80001 11.7002 7.70001 12.6002C7.70001 13.5002 7.70001 13.8002 7.70001 16.0002C7.70001 18.3002 7.70001 18.5002 7.70001 19.4002C7.70001 20.3002 7.90001 20.9002 8.10001 21.4002C8.30001 21.9002 8.60001 22.4002 9.10001 22.9002C9.60001 23.4002 10 23.6002 10.6 23.9002C11.1 24.1002 11.7 24.2002 12.6 24.3002C13.5 24.3002 13.8 24.3002 16 24.3002C18.2 24.3002 18.5 24.3002 19.4 24.3002C20.3 24.3002 20.9 24.1002 21.4 23.9002C21.9 23.7002 22.4 23.4002 22.9 22.9002C23.4 22.4002 23.6 22.0002 23.9 21.4002C24.1 20.9002 24.2 20.3002 24.3 19.4002C24.3 18.5002 24.3 18.2002 24.3 16.0002C24.3 13.8002 24.3 13.5002 24.3 12.6002C24.3 11.7002 24.1 11.1002 23.9 10.6002C23.7 10.1002 23.4 9.6002 22.9 9.1002C22.4 8.6002 22 8.4002 21.4 8.1002C20.9 7.9002 20.3 7.8002 19.4 7.7002C18.5 7.7002 18.3 7.7002 16 7.7002Z" fill="white"/>
		<path d="M16 11.7002C13.6 11.7002 11.7 13.6002 11.7 16.0002C11.7 18.4002 13.6 20.3002 16 20.3002C18.4 20.3002 20.3 18.4002 20.3 16.0002C20.3 13.6002 18.4 11.7002 16 11.7002ZM16 18.8002C14.5 18.8002 13.2 17.6002 13.2 16.0002C13.2 14.5002 14.4 13.2002 16 13.2002C17.5 13.2002 18.8 14.4002 18.8 16.0002C18.8 17.5002 17.5 18.8002 16 18.8002Z" fill="white"/>
		<path d="M20.4 12.6002C20.9523 12.6002 21.4 12.1525 21.4 11.6002C21.4 11.0479 20.9523 10.6002 20.4 10.6002C19.8477 10.6002 19.4 11.0479 19.4 11.6002C19.4 12.1525 19.8477 12.6002 20.4 12.6002Z" fill="white"/>
	</symbol>

	<symbol id="twitter" viewBox="0 0 32 32">
		<path d="M32 9C32 4.02944 27.9706 0 23 0H9C4.02944 0 0 4.02944 0 9V23C0 27.9706 4.02944 32 9 32H23C27.9706 32 32 27.9706 32 23V9Z" />
		<path d="M24 11C23.4 11.3 22.8 11.4 22.1 11.5C22.8 11.1 23.3 10.5 23.5 9.7C22.9 10.1 22.2 10.3 21.4 10.5C20.8 9.9 19.9 9.5 19 9.5C16.9 9.5 15.3 11.5 15.8 13.5C13.1 13.4 10.7 12.1 9 10.1C8.1 11.6 8.6 13.5 10 14.5C9.5 14.5 9 14.3 8.5 14.1C8.5 15.6 9.6 17 11.1 17.4C10.6 17.5 10.1 17.6 9.6 17.5C10 18.8 11.2 19.8 12.7 19.8C11.5 20.7 9.7 21.2 8 21C9.5 21.9 11.2 22.5 13 22.5C19.1 22.5 22.5 17.4 22.3 12.7C23 12.3 23.6 11.7 24 11Z" fill="white"/>
	</symbol>

	<symbol id="linkedin" viewBox="0 0 32 32">
		<path d="M32 9C32 4.02944 27.9706 0 23 0H9C4.02944 0 0 4.02944 0 9V23C0 27.9706 4.02944 32 9 32H23C27.9706 32 32 27.9706 32 23V9Z" />
		<path d="M11.6 24H8.2V13.3H11.6V24ZM9.9 11.8C8.8 11.8 8 11 8 9.9C8 8.8 8.9 8 9.9 8C11 8 11.8 8.8 11.8 9.9C11.8 11 11 11.8 9.9 11.8ZM24 24H20.6V18.2C20.6 16.5 19.9 16 18.9 16C17.9 16 16.9 16.8 16.9 18.3V24H13.5V13.3H16.7V14.8C17 14.1 18.2 13 19.9 13C21.8 13 23.8 14.1 23.8 17.4V24H24Z" fill="white"/>
	</symbol>


</svg>
