<svg width="333" height="333" fill="none" xmlns="http://www.w3.org/2000/svg"><g opacity=".2" fill="#102E49"><circle cx="1.83" cy="1.83" r="1.83"/><circle cx="1.83" cy="177.478" r="1.83"/><circle cx="1.83" cy="23.786" r="1.83"/><circle cx="1.83" cy="199.434" r="1.83"/><circle cx="45.742" cy="1.83" r="1.83"/><circle cx="45.742" cy="177.478" r="1.83"/><circle cx="45.742" cy="23.786" r="1.83"/><circle cx="45.742" cy="199.434" r="1.83"/><circle cx="23.786" cy="1.83" r="1.83"/><circle cx="23.786" cy="177.478" r="1.83"/><circle cx="23.786" cy="23.786" r="1.83"/><circle cx="23.786" cy="199.434" r="1.83"/><circle cx="67.698" cy="1.83" r="1.83"/><circle cx="67.698" cy="177.478" r="1.83"/><circle cx="67.698" cy="23.786" r="1.83"/><circle cx="67.698" cy="199.434" r="1.83"/><circle cx="89.654" cy="1.83" r="1.83"/><circle cx="89.654" cy="177.478" r="1.83"/><circle cx="89.654" cy="23.786" r="1.83"/><circle cx="89.654" cy="199.434" r="1.83"/><circle cx="133.566" cy="1.83" r="1.83"/><circle cx="133.566" cy="177.478" r="1.83"/><circle cx="133.566" cy="23.786" r="1.83"/><circle cx="133.566" cy="199.434" r="1.83"/><circle cx="111.61" cy="1.83" r="1.83"/><circle cx="111.61" cy="177.478" r="1.83"/><circle cx="111.61" cy="23.786" r="1.83"/><circle cx="111.61" cy="199.434" r="1.83"/><circle cx="155.522" cy="1.83" r="1.83"/><circle cx="155.522" cy="177.478" r="1.83"/><circle cx="155.522" cy="23.786" r="1.83"/><circle cx="155.522" cy="199.434" r="1.83"/><circle cx="177.478" cy="1.83" r="1.83"/><circle cx="177.478" cy="177.478" r="1.83"/><circle cx="177.478" cy="23.786" r="1.83"/><circle cx="177.478" cy="199.434" r="1.83"/><circle cx="221.39" cy="1.83" r="1.83"/><circle cx="221.39" cy="177.478" r="1.83"/><circle cx="221.39" cy="23.786" r="1.83"/><circle cx="221.39" cy="199.434" r="1.83"/><circle cx="199.434" cy="1.83" r="1.83"/><circle cx="199.434" cy="177.478" r="1.83"/><circle cx="199.434" cy="23.786" r="1.83"/><circle cx="199.434" cy="199.434" r="1.83"/><circle cx="243.346" cy="1.83" r="1.83"/><circle cx="243.346" cy="177.478" r="1.83"/><circle cx="243.346" cy="23.786" r="1.83"/><circle cx="243.346" cy="199.434" r="1.83"/><circle cx="265.302" cy="1.83" r="1.83"/><circle cx="265.302" cy="177.478" r="1.83"/><circle cx="265.302" cy="23.786" r="1.83"/><circle cx="265.302" cy="199.434" r="1.83"/><circle cx="309.214" cy="1.83" r="1.83"/><circle cx="309.214" cy="177.478" r="1.83"/><circle cx="309.214" cy="23.786" r="1.83"/><circle cx="309.214" cy="199.434" r="1.83"/><circle cx="287.258" cy="1.83" r="1.83"/><circle cx="287.258" cy="177.478" r="1.83"/><circle cx="287.258" cy="23.786" r="1.83"/><circle cx="287.258" cy="199.434" r="1.83"/><circle cx="331.17" cy="1.83" r="1.83"/><circle cx="331.17" cy="177.478" r="1.83"/><circle cx="331.17" cy="23.786" r="1.83"/><circle cx="331.17" cy="199.434" r="1.83"/><circle cx="1.83" cy="45.742" r="1.83"/><circle cx="1.83" cy="221.39" r="1.83"/><circle cx="1.83" cy="67.698" r="1.83"/><circle cx="1.83" cy="243.346" r="1.83"/><circle cx="45.742" cy="45.742" r="1.83"/><circle cx="45.742" cy="221.39" r="1.83"/><circle cx="45.742" cy="67.698" r="1.83"/><circle cx="45.742" cy="243.346" r="1.83"/><circle cx="23.786" cy="45.742" r="1.83"/><circle cx="23.786" cy="221.39" r="1.83"/><circle cx="23.786" cy="67.698" r="1.83"/><circle cx="23.786" cy="243.346" r="1.83"/><circle cx="67.698" cy="45.742" r="1.83"/><circle cx="67.698" cy="221.39" r="1.83"/><circle cx="67.698" cy="67.698" r="1.83"/><circle cx="67.698" cy="243.346" r="1.83"/><circle cx="89.654" cy="45.742" r="1.83"/><circle cx="89.654" cy="221.39" r="1.83"/><circle cx="89.654" cy="67.698" r="1.83"/><circle cx="89.654" cy="243.346" r="1.83"/><circle cx="133.566" cy="45.742" r="1.83"/><circle cx="133.566" cy="221.39" r="1.83"/><circle cx="133.566" cy="67.698" r="1.83"/><circle cx="133.566" cy="243.346" r="1.83"/><circle cx="111.61" cy="45.742" r="1.83"/><circle cx="111.61" cy="221.39" r="1.83"/><circle cx="111.61" cy="67.698" r="1.83"/><circle cx="111.61" cy="243.346" r="1.83"/><circle cx="155.522" cy="45.742" r="1.83"/><circle cx="155.522" cy="221.39" r="1.83"/><circle cx="155.522" cy="67.698" r="1.83"/><circle cx="155.522" cy="243.346" r="1.83"/><circle cx="177.478" cy="45.742" r="1.83"/><circle cx="177.478" cy="221.39" r="1.83"/><circle cx="177.478" cy="67.698" r="1.83"/><circle cx="177.478" cy="243.346" r="1.83"/><circle cx="221.39" cy="45.742" r="1.83"/><circle cx="221.39" cy="221.39" r="1.83"/><circle cx="221.39" cy="67.698" r="1.83"/><circle cx="221.39" cy="243.346" r="1.83"/><circle cx="199.434" cy="45.742" r="1.83"/><circle cx="199.434" cy="221.39" r="1.83"/><circle cx="199.434" cy="67.698" r="1.83"/><circle cx="199.434" cy="243.346" r="1.83"/><circle cx="243.346" cy="45.742" r="1.83"/><circle cx="243.346" cy="221.39" r="1.83"/><circle cx="243.346" cy="67.698" r="1.83"/><circle cx="243.346" cy="243.346" r="1.83"/><circle cx="265.302" cy="45.742" r="1.83"/><circle cx="265.302" cy="221.39" r="1.83"/><circle cx="265.302" cy="67.698" r="1.83"/><circle cx="265.302" cy="243.346" r="1.83"/><circle cx="309.214" cy="45.742" r="1.83"/><circle cx="309.214" cy="221.39" r="1.83"/><circle cx="309.214" cy="67.698" r="1.83"/><circle cx="309.214" cy="243.346" r="1.83"/><circle cx="287.258" cy="45.742" r="1.83"/><circle cx="287.258" cy="221.39" r="1.83"/><circle cx="287.258" cy="67.698" r="1.83"/><circle cx="287.258" cy="243.346" r="1.83"/><circle cx="331.17" cy="45.742" r="1.83"/><circle cx="331.17" cy="221.39" r="1.83"/><circle cx="331.17" cy="67.698" r="1.83"/><circle cx="331.17" cy="243.346" r="1.83"/><circle cx="1.83" cy="89.654" r="1.83"/><circle cx="1.83" cy="265.302" r="1.83"/><circle cx="1.83" cy="111.61" r="1.83"/><circle cx="1.83" cy="287.258" r="1.83"/><circle cx="45.742" cy="89.654" r="1.83"/><circle cx="45.742" cy="265.302" r="1.83"/><circle cx="45.742" cy="111.61" r="1.83"/><circle cx="45.742" cy="287.258" r="1.83"/><circle cx="23.786" cy="89.654" r="1.83"/><circle cx="23.786" cy="265.302" r="1.83"/><circle cx="23.786" cy="111.61" r="1.83"/><circle cx="23.786" cy="287.258" r="1.83"/><circle cx="67.698" cy="89.654" r="1.83"/><circle cx="67.698" cy="265.302" r="1.83"/><circle cx="67.698" cy="111.61" r="1.83"/><circle cx="67.698" cy="287.258" r="1.83"/><circle cx="89.654" cy="89.654" r="1.83"/><circle cx="89.654" cy="265.302" r="1.83"/><circle cx="89.654" cy="111.61" r="1.83"/><circle cx="89.654" cy="287.258" r="1.83"/><circle cx="133.566" cy="89.654" r="1.83"/><circle cx="133.566" cy="265.302" r="1.83"/><circle cx="133.566" cy="111.61" r="1.83"/><circle cx="133.566" cy="287.258" r="1.83"/><circle cx="111.61" cy="89.654" r="1.83"/><circle cx="111.61" cy="265.302" r="1.83"/><circle cx="111.61" cy="111.61" r="1.83"/><circle cx="111.61" cy="287.258" r="1.83"/><circle cx="155.522" cy="89.654" r="1.83"/><circle cx="155.522" cy="265.302" r="1.83"/><circle cx="155.522" cy="111.61" r="1.83"/><circle cx="155.522" cy="287.258" r="1.83"/><circle cx="177.478" cy="89.654" r="1.83"/><circle cx="177.478" cy="265.302" r="1.83"/><circle cx="177.478" cy="111.61" r="1.83"/><circle cx="177.478" cy="287.258" r="1.83"/><circle cx="221.39" cy="89.654" r="1.83"/><circle cx="221.39" cy="265.302" r="1.83"/><circle cx="221.39" cy="111.61" r="1.83"/><circle cx="221.39" cy="287.258" r="1.83"/><circle cx="199.434" cy="89.654" r="1.83"/><circle cx="199.434" cy="265.302" r="1.83"/><circle cx="199.434" cy="111.61" r="1.83"/><circle cx="199.434" cy="287.258" r="1.83"/><circle cx="243.346" cy="89.654" r="1.83"/><circle cx="243.346" cy="265.302" r="1.83"/><circle cx="243.346" cy="111.61" r="1.83"/><circle cx="243.346" cy="287.258" r="1.83"/><circle cx="265.302" cy="89.654" r="1.83"/><circle cx="265.302" cy="265.302" r="1.83"/><circle cx="265.302" cy="111.61" r="1.83"/><circle cx="265.302" cy="287.258" r="1.83"/><circle cx="309.214" cy="89.654" r="1.83"/><circle cx="309.214" cy="265.302" r="1.83"/><circle cx="309.214" cy="111.61" r="1.83"/><circle cx="309.214" cy="287.258" r="1.83"/><circle cx="287.258" cy="89.654" r="1.83"/><circle cx="287.258" cy="265.302" r="1.83"/><circle cx="287.258" cy="111.61" r="1.83"/><circle cx="287.258" cy="287.258" r="1.83"/><circle cx="331.17" cy="89.654" r="1.83"/><circle cx="331.17" cy="265.302" r="1.83"/><circle cx="331.17" cy="111.61" r="1.83"/><circle cx="331.17" cy="287.258" r="1.83"/><circle cx="1.83" cy="133.566" r="1.83"/><circle cx="1.83" cy="309.214" r="1.83"/><circle cx="1.83" cy="155.522" r="1.83"/><circle cx="1.83" cy="331.171" r="1.83"/><circle cx="45.742" cy="133.566" r="1.83"/><circle cx="45.742" cy="309.214" r="1.83"/><circle cx="45.742" cy="155.522" r="1.83"/><circle cx="45.742" cy="331.171" r="1.83"/><circle cx="23.786" cy="133.566" r="1.83"/><circle cx="23.786" cy="309.214" r="1.83"/><circle cx="23.786" cy="155.522" r="1.83"/><circle cx="23.786" cy="331.171" r="1.83"/><circle cx="67.698" cy="133.566" r="1.83"/><circle cx="67.698" cy="309.214" r="1.83"/><circle cx="67.698" cy="155.522" r="1.83"/><circle cx="67.698" cy="331.171" r="1.83"/><circle cx="89.654" cy="133.566" r="1.83"/><circle cx="89.654" cy="309.214" r="1.83"/><circle cx="89.654" cy="155.522" r="1.83"/><circle cx="89.654" cy="331.171" r="1.83"/><circle cx="133.566" cy="133.566" r="1.83"/><circle cx="133.566" cy="309.214" r="1.83"/><circle cx="133.566" cy="155.522" r="1.83"/><circle cx="133.566" cy="331.171" r="1.83"/><circle cx="111.61" cy="133.566" r="1.83"/><circle cx="111.61" cy="309.214" r="1.83"/><circle cx="111.61" cy="155.522" r="1.83"/><circle cx="111.61" cy="331.171" r="1.83"/><circle cx="155.522" cy="133.566" r="1.83"/><circle cx="155.522" cy="309.214" r="1.83"/><circle cx="155.522" cy="155.522" r="1.83"/><circle cx="155.522" cy="331.171" r="1.83"/><circle cx="177.478" cy="133.566" r="1.83"/><circle cx="177.478" cy="309.214" r="1.83"/><circle cx="177.478" cy="155.522" r="1.83"/><circle cx="177.478" cy="331.171" r="1.83"/><circle cx="221.39" cy="133.566" r="1.83"/><circle cx="221.39" cy="309.214" r="1.83"/><circle cx="221.39" cy="155.522" r="1.83"/><circle cx="221.39" cy="331.171" r="1.83"/><circle cx="199.434" cy="133.566" r="1.83"/><circle cx="199.434" cy="309.214" r="1.83"/><circle cx="199.434" cy="155.522" r="1.83"/><circle cx="199.434" cy="331.171" r="1.83"/><circle cx="243.346" cy="133.566" r="1.83"/><circle cx="243.346" cy="309.214" r="1.83"/><circle cx="243.346" cy="155.522" r="1.83"/><circle cx="243.346" cy="331.171" r="1.83"/><circle cx="265.302" cy="133.566" r="1.83"/><circle cx="265.302" cy="309.214" r="1.83"/><circle cx="265.302" cy="155.522" r="1.83"/><circle cx="265.302" cy="331.171" r="1.83"/><circle cx="309.214" cy="133.566" r="1.83"/><circle cx="309.214" cy="309.214" r="1.83"/><circle cx="309.214" cy="155.522" r="1.83"/><circle cx="309.214" cy="331.171" r="1.83"/><circle cx="287.258" cy="133.566" r="1.83"/><circle cx="287.258" cy="309.214" r="1.83"/><circle cx="287.258" cy="155.522" r="1.83"/><circle cx="287.258" cy="331.171" r="1.83"/><circle cx="331.17" cy="133.566" r="1.83"/><circle cx="331.17" cy="309.214" r="1.83"/><circle cx="331.17" cy="155.522" r="1.83"/><circle cx="331.17" cy="331.171" r="1.83"/></g></svg>