<svg width="123" height="26" fill="none" xmlns="http://www.w3.org/2000/svg"><path d="M20 16.36c0 2.72.898 5.004 2.726 6.852C24.556 25.059 26.883 26 29.71 26c2.826 0 5.153-.94 6.982-2.788 1.829-1.848 2.727-4.132 2.727-6.853 0-2.687-.898-4.971-2.727-6.819-1.829-1.881-4.156-2.822-6.982-2.822-2.826 0-5.154.94-6.983 2.822C20.898 11.388 20 13.672 20 16.36zm6.118 3.728c-.964-1.041-1.43-2.284-1.43-3.729 0-1.444.466-2.687 1.43-3.695s2.161-1.511 3.59-1.511c1.43 0 2.594.503 3.559 1.511.964 1.008 1.462 2.25 1.462 3.695 0 1.445-.498 2.688-1.462 3.729-.965 1.008-2.129 1.511-3.558 1.511-1.43 0-2.627-.503-3.591-1.511zm21.289 5.442v-9.81c0-2.72 1.663-4.635 4.157-4.635 2.294 0 3.823 1.613 3.823 4.535v9.91h4.688V14.344c0-2.452-.698-4.334-2.061-5.644-1.363-1.31-3.06-1.982-5.02-1.982-2.561 0-4.722 1.277-5.686 3.057V7.222h-4.589V25.53h4.688zm22.729.47c2.161 0 3.923-.538 5.22-1.646 1.33-1.108 1.995-2.52 1.995-4.233 0-2.015-1.03-3.56-3.059-4.635-.499-.269-1.962-.874-4.356-1.78-1.064-.37-1.596-.908-1.596-1.68 0-.84.832-1.545 2.062-1.545 1.496 0 2.892.604 4.156 1.814l2.327-3.057c-1.662-1.747-3.79-2.62-6.35-2.62-2.028 0-3.69.503-4.921 1.545-1.23 1.041-1.862 2.351-1.862 3.964 0 2.15 1.03 3.728 3.125 4.736.4.202 1.164.538 2.328.974 1.164.437 1.862.706 2.161.84.865.403 1.297.94 1.297 1.579 0 1.041-1.064 1.78-2.494 1.78-1.829 0-3.724-.974-5.02-2.553l-2.494 2.99C64.484 24.824 66.977 26 70.135 26zm18.523-.034c5.187 0 8.312-3.023 8.312-8.162V7.222h-4.688v10.582c0 2.317-1.363 3.83-3.624 3.83s-3.624-1.513-3.624-3.83V7.222h-4.688v10.582c0 5.14 3.158 8.162 8.312 8.162zM105.691 0h-4.688v25.53h4.688V0zm15.913 20.726c-1.098.638-2.128.94-3.026.94-1.696 0-2.56-1.074-2.56-3.224v-7.256h5.985V7.222h-5.985V.74h-4.655v6.483h-2.993v3.964h2.959v7.558c0 4.737 2.162 7.222 6.318 7.222 2.095 0 3.857-.504 5.353-1.511l-1.396-3.729z" fill="#1D272E"/><path d="M9.51 26c3.686 0 6.878-1.863 8.424-4.792l-3.751-2.229c-.79 1.597-2.698 2.729-4.574 2.729-1.415 0-2.633-.5-3.587-1.465-.954-.998-1.415-2.229-1.415-3.726 0-1.464.494-2.696 1.448-3.66.954-.999 2.172-1.498 3.652-1.498 1.942 0 3.489.932 4.574 2.762L18 12.058C16.52 8.83 13.294 7 9.642 7c-2.83 0-5.134.898-6.944 2.695C.888 11.46 0 13.755 0 16.517c0 2.762.888 5.057 2.665 6.821C4.442 25.102 6.713 26 9.51 26z" fill="#387EF9"/></svg>