<svg width="36" height="35" fill="none" xmlns="http://www.w3.org/2000/svg"><path opacity=".6" d="M1.907 24.085s.249 3.041.306 4c.077 1.287.574 2.723 1.404 3.72 1.17 1.415 2.55 1.913 4.39 1.917 2.165.003 17.907.003 20.071 0 1.841-.004 3.22-.502 4.391-1.916.83-.998 1.327-2.434 1.405-3.72.056-.96.305-4.001.305-4.001" stroke="#fff" stroke-width="2.5" stroke-linecap="round" stroke-linejoin="round"/><path d="M11.868 6.327v-.65a3.863 3.863 0 013.864-3.864h4.518a3.864 3.864 0 013.864 3.864l.002.65m-6.125 19.86v-2.265" stroke="#fff" stroke-width="2.5" stroke-linecap="round" stroke-linejoin="round"/><path clip-rule="evenodd" d="M1.812 11.68v6.068c3.357 2.214 7.378 3.764 11.792 4.379a4.522 4.522 0 014.378-3.34 4.477 4.477 0 014.346 3.357c4.43-.614 8.468-2.165 11.842-4.396v-6.067a5.339 5.339 0 00-5.35-5.352H7.18a5.354 5.354 0 00-5.368 5.352z" stroke="#fff" stroke-width="2.5" stroke-linecap="round" stroke-linejoin="round"/></svg>