<svg width="38" height="38" fill="none" xmlns="http://www.w3.org/2000/svg"><path clip-rule="evenodd" d="M31.375 31.372c-5.348 5.35-13.268 6.505-19.749 3.508-.957-.386-1.74-.697-2.487-.697-2.077.012-4.662 2.026-6.006.684-1.343-1.344.672-3.931.672-6.02 0-.746-.299-1.517-.684-2.475C.122 19.892 1.28 11.97 6.628 6.622c6.827-6.83 17.92-6.83 24.747-.001 6.84 6.84 6.827 17.923 0 24.751z" stroke="#fff" stroke-width="2.5" stroke-linecap="round" stroke-linejoin="round"/><path opacity=".6" d="M25.894 19.723h.016m-7.032 0h.016m-7.031 0h.015" stroke="#fff" stroke-width="3" stroke-linecap="round" stroke-linejoin="round"/></svg>